<?xml version="1.0" standalone="no"?>
<!DOCTYPE svg PUBLIC "-//W3C//DTD SVG 20010904//EN"
 "http://www.w3.org/TR/2001/REC-SVG-20010904/DTD/svg10.dtd">
<svg version="1.0" xmlns="http://www.w3.org/2000/svg"
 width="1024.000000pt" height="1024.000000pt" viewBox="0 0 1024.000000 1024.000000"
 preserveAspectRatio="xMidYMid meet">

<g transform="translate(0.000000,1024.000000) scale(0.100000,-0.100000)"
fill="#000000" stroke="none">
<path d="M7 10233 c-4 -3 -7 -2307 -7 -5120 l0 -5113 5120 0 5120 0 0 5120 0
5120 -5113 0 c-2813 0 -5117 -3 -5120 -7z m5408 -3208 c239 -36 505 -131 710
-253 247 -147 549 -446 631 -627 56 -120 36 -241 -54 -337 -61 -65 -130 -91
-233 -86 -108 4 -149 32 -270 183 -117 147 -206 231 -324 308 -163 106 -331
175 -505 208 -99 19 -327 16 -445 -5 -257 -47 -480 -161 -656 -336 -192 -191
-320 -420 -380 -680 -30 -128 -37 -407 -14 -537 97 -543 507 -956 1052 -1059
114 -21 319 -22 438 -1 104 19 292 80 383 125 165 82 326 222 471 410 90 116
164 162 264 162 114 0 221 -65 272 -165 26 -50 30 -69 30 -134 -1 -68 -5 -83
-38 -146 -84 -159 -257 -349 -443 -489 -389 -292 -884 -427 -1372 -376 -273
29 -586 141 -811 292 -182 122 -355 281 -473 434 -178 232 -302 501 -363 794
-39 183 -46 474 -16 685 42 299 128 526 295 780 309 469 766 763 1318 850 118
18 411 18 533 0z"/>
</g>
</svg>
